# xmcd
#
# Track frame offsets:
#	150
#	19310
#	36422
#	56975
#	70534
#	84748
#	103399
#	116059
#	130336
#	145490
#
# Disc length: 2173 seconds
#
# Revision: 0
# Processed by: cddbd v1.5.1PL0 Copyright (c) Steve Scherf et al.
# Submitted via: dBpowerAMP V4.0
#
DISCID=9c087b0a
DTITLE=Reba McEntire - For My Broken Heart
DYEAR=1992
DGENRE=Country
TTITLE0=For My Broken Heart
TTITLE1=Is There Life Out There
TTITLE2=Bobby
TTITLE3=He's In Dallas
TTITLE4=All Dressed Up ( With Nowhere To Go )
TTITLE5=The Night The Lights Went Out In Georgia
TTITLE6=Buying Her Roses
TTITLE7=The Greatest Man I Never Knew
TTITLE8=I Wouldn't Go That Far
TTITLE9=If I Had Only Known
EXTD=
EXTT0=
EXTT1=
EXTT2=
EXTT3=
EXTT4=
EXTT5=
EXTT6=
EXTT7=
EXTT8=
EXTT9=
PLAYORDER=
